PathFileType	4	(X/Y/Z)	Run_400 02
DataRate	CameraRate	NumFrames	NumMarkers	Units	OrigDataRate	OrigDataStartFrame	OrigNumFrames
100	100	6	42	mm	100	477	128
Frame#	Time	LASI			RASI			LPSI			RPSI			RTH1			RTH3			LTH1			LTH2			LTH3			RTB1			RTB2			LTB1			LTB2			RCAL			RTOE			LCAL			LTOE			LACR			RACR			CLAV			C7			RUA1			RUA2			RUA3			RLEL			RMEL			LUA1			LUA2			LUA3			LLEL			LMEL			RFAsuperior			RFAradius			RFAulna			LFAsuperior			LFAradius			LFAulna			RTH2			RTB3			RMT5			LMT5			LTB3		
		X1	Y1	Z1	X2	Y2	Z2	X3	Y3	Z3	X4	Y4	Z4	X5	Y5	Z5	X6	Y6	Z6	X7	Y7	Z7	X8	Y8	Z8	X9	Y9	Z9	X10	Y10	Z10	X11	Y11	Z11	X12	Y12	Z12	X13	Y13	Z13	X14	Y14	Z14	X15	Y15	Z15	X16	Y16	Z16	X17	Y17	Z17	X18	Y18	Z18	X19	Y19	Z19	X20	Y20	Z20	X21	Y21	Z21	X22	Y22	Z22	X23	Y23	Z23	X24	Y24	Z24	X25	Y25	Z25	X26	Y26	Z26	X27	Y27	Z27	X28	Y28	Z28	X29	Y29	Z29	X30	Y30	Z30	X31	Y31	Z31	X32	Y32	Z32	X33	Y33	Z33	X34	Y34	Z34	X35	Y35	Z35	X36	Y36	Z36	X37	Y37	Z37	X38	Y38	Z38	X39	Y39	Z39	X40	Y40	Z40	X41	Y41	Z41	X42	Y42	Z42	

477	  4.770000	767.391812	1014.718978	-455.026973	753.706437	1026.132535	-207.966042	592.257813	1103.919697	-379.488984	583.532832	1099.719835	-296.169680	717.792407	893.341548	-135.738024	772.198430	658.262841	-173.860998	677.371105	900.585439	-515.066614	703.287737	766.834226	-491.356580	583.638817	661.770994	-488.385586	906.411745	446.132521	-222.692847	876.902226	335.895665	-178.691379	465.960221	476.244188	-420.599812	373.428904	525.819894	-472.799449	852.110181	 96.199477	-281.783932	1079.198516	125.009141	-248.359927	125.008021	574.315123	-349.620314	 87.741551	345.095570	-365.995736	759.707066	1558.355342	-464.083579	693.655106	1529.594993	-139.445847	786.940491	1498.742991	-269.271013	666.129660	1577.906155	-325.872846	595.860912	1460.156907	-67.591964	515.938112	1407.921864	-116.556799	519.314553	1371.581095	-44.090894	466.328746	1287.076704	-17.180396	447.453197	1274.072866	-96.116904	745.824154	1473.313819	-576.974439	680.861003	1394.766681	-596.979140	743.494197	1371.530761	-644.284395	759.393108	1289.471977	-684.750884	694.844212	1248.406576	-659.690308	499.903316	1213.057611	 -5.667474	665.536669	1091.190338	-36.270458	607.339895	1050.398719	-36.616270	839.338250	1237.696926	-601.992751	896.118482	1245.665190	-454.533609	888.978677	1182.224309	-477.890383	805.451108	777.097222	-148.084228	940.350382	249.115776	-232.508443	1049.567453	 63.228290	-179.565780	 39.601383	387.385688	-431.240537	261.669769	463.081462	-392.742553	
478	  4.780000	767.614265	1008.303043	-453.607526	752.343543	1018.395951	-208.115521	591.500257	1095.601405	-379.492700	581.171911	1092.261430	-295.787015	713.185246	885.986022	-134.978933	771.141384	653.084444	-174.754873	681.667637	891.813575	-514.449498	711.186046	759.161440	-490.016092	595.024827	650.960098	-488.514129	899.774717	435.471609	-224.468811	866.586461	326.406243	-180.560342	477.347646	471.941661	-420.084062	388.717947	527.840553	-473.158594	827.626809	 91.449846	-283.645072	1057.237146	107.412452	-258.989961	143.504641	595.027332	-351.141483	 92.388693	368.394070	-368.685223	758.037419	1552.542558	-463.128572	694.397457	1519.855725	-136.211293	786.636545	1491.222503	-267.102045	665.581811	1570.008015	-322.829314	598.951486	1447.989026	-62.808769	518.032451	1394.036006	-109.673920	524.595887	1356.219257	-38.536956	474.487143	1271.403778	-10.986383	453.809169	1258.029291	-89.415963	740.761826	1467.828802	-575.486814	675.035634	1390.406786	-595.051984	736.858592	1366.956911	-643.773254	750.855740	1285.168827	-685.028118	684.501506	1246.111962	-659.241635	509.854759	1197.671831	 -0.613567	677.995464	1080.553347	-35.019535	620.855730	1037.996633	-33.884354	830.276017	1225.100772	-606.631970	890.561447	1221.893418	-460.574537	879.666402	1160.198897	-486.973050	804.590920	773.091401	-148.195860	924.595405	237.466067	-236.669992	1026.413385	 52.570841	-185.551608	 48.556678	413.703154	-434.968930	272.772433	474.026711	-392.829552	
479	  4.790000	767.347215	1000.941943	-451.964689	750.861439	1010.821377	-207.696970	590.299296	1086.493019	-380.051437	578.579702	1083.993806	-295.613988	709.684398	878.606102	-136.826556	771.181987	646.966913	-174.834938	685.573169	882.189755	-513.736707	719.320002	750.814116	-488.856772	607.208024	639.144225	-488.809655	892.602979	423.929373	-228.035432	854.679247	316.423571	-184.568312	490.929755	466.851657	-419.907259	406.308652	528.250468	-474.116665	795.493927	 87.185402	-287.267063	1027.891159	 90.654090	-270.103620	164.747464	613.004747	-353.374885	101.971296	389.223777	-372.124827	756.471344	1545.697737	-461.624282	695.576919	1509.403458	-132.969550	786.458002	1482.629081	-265.138169	665.151426	1560.938577	-319.806707	602.658091	1433.614223	-58.083218	520.960849	1378.852879	-102.165643	530.854731	1339.379855	-32.684898	483.776923	1254.441125	 -4.861392	461.429773	1240.571542	-82.842292	735.663278	1461.379635	-574.257420	669.195861	1385.305606	-593.269935	730.097561	1361.449420	-643.024447	742.067815	1280.319933	-685.503462	674.018185	1243.345527	-658.895167	521.401916	1181.543916	  4.315067	691.876070	1069.764995	-34.073399	636.054588	1025.217332	-31.453505	820.283415	1212.125451	-611.762856	882.971406	1197.068902	-467.641509	868.934943	1137.291415	-497.362616	805.970140	768.397739	-149.974253	903.786056	225.174031	-244.473216	995.273475	 47.727076	-189.641539	 62.427126	436.806190	-439.501216	286.943079	483.191245	-393.311412	
480	  4.800000	766.532985	992.673926	-450.096255	749.062837	1003.684539	-206.272426	587.834596	1076.813286	-381.144624	575.516324	1075.082304	-295.874061	708.179224	871.475610	-139.562162	771.878172	640.103708	-174.550245	689.111970	871.646449	-512.869190	727.525350	741.996428	-487.736144	620.146058	626.588174	-489.011410	884.720421	413.089414	-233.547695	840.812352	307.630728	-191.096507	506.866872	461.444065	-419.942987	425.935365	526.927726	-475.495547	758.091805	 83.274739	-293.297183	992.813559	 78.866760	-277.952165	188.588856	628.013777	-356.384527	116.043563	407.167453	-375.899322	755.127464	1538.147507	-459.779472	697.256225	1498.747729	-129.456510	786.632747	1473.192343	-263.583135	664.509745	1550.902324	-316.519135	607.233001	1417.329555	-53.404610	525.086355	1362.388209	-94.137231	538.315542	1321.475689	-26.631003	494.301041	1236.377165	  0.997782	470.531278	1222.009784	-76.445465	730.851794	1454.419554	-573.160833	663.455232	1379.864792	-591.640610	723.337926	1355.225568	-642.049138	733.088092	1275.097496	-686.081878	663.748430	1240.242833	-659.008671	534.613242	1164.979083	  8.911183	707.156100	1058.923823	-33.520726	652.873679	1012.452700	-29.466573	809.399753	1199.015675	-617.361797	873.359460	1171.855901	-475.651743	856.554358	1114.307288	-509.069446	807.593250	762.524058	-152.075845	878.703117	214.306773	-255.001966	957.947048	 48.048460	-191.716739	 80.751466	456.281762	-444.657153	303.964061	490.504806	-394.002711	
481	  4.810000	764.875326	983.479383	-447.814639	746.667717	996.822067	-203.844838	583.446028	1067.018061	-382.243584	571.805451	1066.079205	-296.585883	707.931845	865.238069	-141.016185	772.390366	633.458151	-174.684706	692.664703	860.766579	-511.863216	735.698076	733.624515	-486.522130	633.843574	614.176017	-488.769206	875.669700	403.971257	-239.691913	824.341416	301.451653	-198.458438	525.262239	456.357667	-419.766391	447.400657	524.182560	-476.983983	718.613834	 80.426547	-300.158491	954.754886	 73.269445	-281.599692	214.576413	639.751338	-360.182232	134.036064	421.717244	-379.576247	753.983391	1530.505791	-458.064486	699.303010	1488.343917	-125.575546	787.371005	1463.222139	-262.368388	663.439615	1540.659646	-312.939672	613.128206	1400.366258	-48.791824	530.570764	1344.813463	-85.881547	547.243352	1303.103541	-20.750597	506.252306	1217.749979	  6.514103	481.076602	1202.799633	-70.192479	726.491042	1447.534118	-572.065746	657.825491	1374.382181	-590.005879	716.640939	1348.782925	-641.040107	723.907911	1269.740971	-686.646394	653.728491	1237.109970	-659.659016	549.430519	1148.274972	 13.005801	723.860190	1048.396082	-33.350369	671.228999	1000.165518	-28.084118	797.545279	1186.045823	-623.305676	861.795141	1147.074605	-484.532181	842.271401	1092.247689	-521.812811	807.384883	756.108618	-153.224928	851.057141	206.377702	-264.993737	917.786692	 50.306850	-193.137130	102.865429	471.524530	-450.068769	323.720777	496.020842	-394.892613	
482	  4.820000	762.181685	973.948508	-445.305501	743.762965	990.289292	-200.712889	577.580557	1058.089965	-382.815672	567.927503	1057.900249	-297.608725	707.111828	860.055639	-140.573170	771.387837	627.536317	-175.578334	696.609559	851.154868	-510.799325	743.970838	727.155602	-485.227298	648.532250	603.358220	-488.003396	864.662492	396.252598	-244.665052	805.152636	297.669666	-204.124905	545.997989	452.151601	-418.855366	470.691163	520.866556	-478.327302	679.326631	 79.601239	-305.426175	916.098949	 71.720440	-282.773789	241.680603	648.049593	-364.629499	155.385621	432.235646	-382.872489	752.937974	1523.359542	-456.725543	701.341315	1478.579543	-121.730205	788.579691	1453.226139	-261.252806	662.196112	1531.495101	-309.459978	620.346987	1384.517520	-44.620961	537.403082	1326.941747	-78.035360	557.742117	1285.290570	-15.536753	519.769272	1199.366408	 11.604874	492.988333	1183.613488	-64.138477	722.555799	1441.314144	-570.956310	652.258103	1369.172393	-588.027348	709.797663	1342.943321	-640.324360	714.450961	1264.712167	-687.165865	643.677905	1234.471287	-660.627263	565.740434	1131.901715	 16.516763	742.003504	1038.849853	-33.618036	691.036601	988.907121	-27.509549	784.569410	1173.756854	-629.374089	848.374495	1123.710145	-494.221559	825.941258	1072.077999	-534.992631	804.617865	749.693988	-153.387598	822.282177	201.313980	-271.687035	877.537811	 51.812537	-194.735811	127.913762	481.752597	-455.228260	346.031992	499.795024	-396.003166	
